<svg width="91" height="56" viewBox="0 0 91 56" fill="none" xmlns="http://www.w3.org/2000/svg">
<path d="M49 24.1176C49 10.7978 38.7025 0 26 0V24.1176L35.2 31.6544L42.3875 41C42.3875 41 45.0125 38.7914 47.275 32.8603C49 28.3382 49 24.1176 49 24.1176Z" fill="#DADADA"/>
<path d="M30.344 25C30.2267 25 30.1307 24.9627 30.056 24.888C29.9813 24.8133 29.944 24.7173 29.944 24.6V17.08C29.944 16.9627 29.9813 16.8667 30.056 16.792C30.1307 16.7173 30.2267 16.68 30.344 16.68H32.088C32.2053 16.68 32.3013 16.7173 32.376 16.792C32.4507 16.8667 32.488 16.9627 32.488 17.08V17.624C32.7333 17.304 33.0587 17.0427 33.464 16.84C33.88 16.6267 34.344 16.52 34.856 16.52C36.0293 16.52 36.84 16.9787 37.288 17.896C37.544 17.4907 37.9013 17.16 38.36 16.904C38.8187 16.648 39.3093 16.52 39.832 16.52C40.7067 16.52 41.416 16.8187 41.96 17.416C42.5147 18.0027 42.792 18.8827 42.792 20.056V24.6C42.792 24.7067 42.7547 24.8027 42.68 24.888C42.6053 24.9627 42.5093 25 42.392 25H40.536C40.4187 25 40.3173 24.9627 40.232 24.888C40.1573 24.8133 40.12 24.7173 40.12 24.6V20.168C40.12 19.6347 40.008 19.2507 39.784 19.016C39.5707 18.7813 39.2773 18.664 38.904 18.664C38.5627 18.664 38.28 18.7867 38.056 19.032C37.832 19.2667 37.72 19.6453 37.72 20.168V24.6C37.72 24.7067 37.6827 24.8027 37.608 24.888C37.5333 24.9627 37.4373 25 37.32 25H35.464C35.3467 25 35.2507 24.9627 35.176 24.888C35.1013 24.8133 35.064 24.7173 35.064 24.6V20.168C35.064 19.6453 34.9467 19.2667 34.712 19.032C34.488 18.7867 34.2 18.664 33.848 18.664C33.5067 18.664 33.2187 18.7867 32.984 19.032C32.76 19.2667 32.648 19.64 32.648 20.152V24.6C32.648 24.7067 32.6107 24.8027 32.536 24.888C32.4613 24.9627 32.3653 25 32.248 25H30.344Z" fill="#0C9364"/>
<path d="M50 50L26 25" stroke="#0C9364" stroke-width="5" stroke-linecap="round"/>
<path d="M47.5 25C47.5 37.4528 37.6443 47.5 25.1572 47.5C12.6292 47.5 2.5 37.4117 2.5 25C2.5 12.5883 12.6292 2.5 25.1572 2.5C37.6443 2.5 47.5 12.5472 47.5 25Z" stroke="#0C9364" stroke-width="5"/>
<path d="M58.662 52.18C57.558 52.18 56.688 51.82 56.052 51.1C55.416 50.368 55.098 49.378 55.098 48.13V43.072C55.098 42.952 55.14 42.85 55.224 42.766C55.308 42.682 55.41 42.64 55.53 42.64H57.114C57.246 42.64 57.348 42.682 57.42 42.766C57.504 42.838 57.546 42.94 57.546 43.072V48.022C57.546 49.51 58.2 50.254 59.508 50.254C60.132 50.254 60.624 50.056 60.984 49.66C61.356 49.264 61.542 48.718 61.542 48.022V43.072C61.542 42.952 61.584 42.85 61.668 42.766C61.752 42.682 61.854 42.64 61.974 42.64H63.558C63.69 42.64 63.792 42.682 63.864 42.766C63.948 42.838 63.99 42.94 63.99 43.072V51.568C63.99 51.688 63.948 51.79 63.864 51.874C63.792 51.958 63.69 52 63.558 52H62.1C61.98 52 61.878 51.958 61.794 51.874C61.71 51.79 61.668 51.688 61.668 51.568V50.83C60.996 51.73 59.994 52.18 58.662 52.18ZM66.7277 41.092C66.6077 41.092 66.5057 41.05 66.4217 40.966C66.3377 40.882 66.2957 40.78 66.2957 40.66V39.364C66.2957 39.244 66.3377 39.142 66.4217 39.058C66.5057 38.974 66.6077 38.932 66.7277 38.932H68.3657C68.4857 38.932 68.5877 38.974 68.6717 39.058C68.7677 39.142 68.8157 39.244 68.8157 39.364V40.66C68.8157 40.78 68.7737 40.882 68.6897 40.966C68.6057 41.05 68.4977 41.092 68.3657 41.092H66.7277ZM66.7997 52C66.6797 52 66.5777 51.958 66.4937 51.874C66.4097 51.79 66.3677 51.688 66.3677 51.568V43.072C66.3677 42.952 66.4097 42.85 66.4937 42.766C66.5777 42.682 66.6797 42.64 66.7997 42.64H68.2937C68.4257 42.64 68.5277 42.682 68.5997 42.766C68.6837 42.838 68.7257 42.94 68.7257 43.072V51.568C68.7257 51.688 68.6837 51.79 68.5997 51.874C68.5277 51.958 68.4257 52 68.2937 52H66.7997ZM75.1638 52.18C73.8438 52.18 72.7878 51.814 71.9958 51.082C71.2158 50.35 70.8018 49.336 70.7538 48.04L70.7358 47.32L70.7538 46.6C70.8018 45.304 71.2158 44.29 71.9958 43.558C72.7878 42.826 73.8438 42.46 75.1638 42.46C76.0998 42.46 76.8918 42.628 77.5398 42.964C78.1998 43.3 78.6858 43.714 78.9978 44.206C79.3218 44.686 79.4958 45.142 79.5198 45.574C79.5318 45.694 79.4898 45.796 79.3938 45.88C79.3098 45.964 79.2078 46.006 79.0878 46.006H77.5038C77.3838 46.006 77.2878 45.982 77.2158 45.934C77.1558 45.874 77.0958 45.778 77.0358 45.646C76.8558 45.178 76.6158 44.842 76.3158 44.638C76.0278 44.434 75.6558 44.332 75.1998 44.332C74.5878 44.332 74.1078 44.53 73.7598 44.926C73.4118 45.31 73.2258 45.898 73.2018 46.69L73.1838 47.356L73.2018 47.95C73.2498 49.522 73.9158 50.308 75.1998 50.308C75.6678 50.308 76.0458 50.206 76.3338 50.002C76.6218 49.798 76.8558 49.462 77.0358 48.994C77.0958 48.862 77.1558 48.772 77.2158 48.724C77.2878 48.664 77.3838 48.634 77.5038 48.634H79.0878C79.2078 48.634 79.3098 48.676 79.3938 48.76C79.4898 48.844 79.5318 48.946 79.5198 49.066C79.4958 49.486 79.3278 49.936 79.0158 50.416C78.7038 50.896 78.2238 51.31 77.5758 51.658C76.9278 52.006 76.1238 52.18 75.1638 52.18ZM81.847 52C81.727 52 81.625 51.958 81.541 51.874C81.457 51.79 81.415 51.688 81.415 51.568V39.652C81.415 39.52 81.457 39.418 81.541 39.346C81.625 39.262 81.727 39.22 81.847 39.22H83.305C83.437 39.22 83.539 39.262 83.611 39.346C83.695 39.418 83.737 39.52 83.737 39.652V45.808L86.761 42.946C86.797 42.922 86.857 42.874 86.941 42.802C87.013 42.742 87.085 42.7 87.157 42.676C87.229 42.652 87.319 42.64 87.427 42.64H89.101C89.221 42.64 89.317 42.676 89.389 42.748C89.461 42.82 89.497 42.916 89.497 43.036C89.497 43.144 89.437 43.252 89.317 43.36L85.609 46.834L89.767 51.298C89.887 51.418 89.947 51.52 89.947 51.604C89.947 51.724 89.905 51.82 89.821 51.892C89.749 51.964 89.659 52 89.551 52H87.841C87.673 52 87.547 51.982 87.463 51.946C87.391 51.898 87.295 51.814 87.175 51.694L83.737 48.076V51.568C83.737 51.688 83.695 51.79 83.611 51.874C83.539 51.958 83.437 52 83.305 52H81.847Z" fill="#0C9364"/>
</svg>
